# xmcd
#
# Track frame offsets:
#	150
#	8624
#	17356
#	23289
#	33359
#	43458
#	54420
#	64208
#	73528
#	84716
#	96249
#	107469
#	116425
#	124521
#	130192
#	139348
#	149120
#	156739
#	166684
#	174683
#	184824
#	193146
#
# Disc length: 2675 seconds
#
# Revision: 1
# Processed by: cddbd v1.5.2PL0 Copyright (c) Steve Scherf et al.
# Submitted via: audiograbber 1.83.01
#
DISCID=320a7116
DTITLE=Johnny Cash - Singles Collection 1955 - 1962 - CD2
DYEAR=1900
DGENRE=
TTITLE0=I Forgot To Remember To Forget
TTITLE1=Katy Too
TTITLE2=You Tell Me
TTITLE3=Goodbye Little Darlin', Goodbye
TTITLE4=Straight A's In Love
TTITLE5=I love You Because
TTITLE6=The Stori Of A Broken Hearth
TTITLE7=Down The Street To 301
TTITLE8=Mean Eyed Cat
TTITLE9=Port Of Lonely Hearts
TTITLE10=Oh Lonesome Me
TTITLE11=Life Goes On
TTITLE12=Sugartime
TTITLE13=My Treasure
TTITLE14=Blue Train
TTITLE15=Born To Lose
TTITLE16=Hey Good Lookin'
TTITLE17=I Could Never Be Ashamed Of You
TTITLE18=I Can't Help It (If I'm Steel In Love With You)
TTITLE19=You Win Again
TTITLE20=Country Boy
TTITLE21=If The Good Lord's Willing
EXTD=
EXTT0=
EXTT1=
EXTT2=
EXTT3=
EXTT4=
EXTT5=
EXTT6=
EXTT7=
EXTT8=
EXTT9=
EXTT10=
EXTT11=
EXTT12=
EXTT13=
EXTT14=
EXTT15=
EXTT16=
EXTT17=
EXTT18=
EXTT19=
EXTT20=
EXTT21=
PLAYORDER=
